<svg xmlns="http://www.w3.org/2000/svg" viewBox="0 0 1400 800" width="1400" height="800">
  <style>
    text { font-family: 'Helvetica Neue', Helvetica, Arial, 'PingFang SC', 'Microsoft YaHei', sans-serif; }
    .title     { font-size: 14px; font-weight: 700; fill: #111827; }
    .subtitle  { font-size: 11px; font-weight: 400; fill: #374151; }
    .label     { font-size: 10px; font-weight: 600; fill: #111827; }
    .sub-label { font-size:  9px; font-weight: 400; fill: #374151; }
    .dim-text  { font-size:  9px; font-weight: 400; fill: #111827; }
    .dim-label { font-size:  8px; font-weight: 400; fill: #374151; }
    .callout-title { font-size: 10px; font-weight: 600; fill: #1e3a8a; }
    .callout-param { font-size:  8px; font-weight: 400; fill: #374151; }
    .legend-title  { font-size: 11px; font-weight: 700; fill: #111827; }
    .legend-text   { font-size:  9px; font-weight: 400; fill: #374151; }
    .equip-id  { font-size:  8px; font-weight: 600; fill: #1e3a8a; }
  </style>
  <defs>
    <!-- Hatching patterns -->
    <pattern id="hatch-carriageway" patternUnits="userSpaceOnUse" width="6" height="6">
      <line x1="0" y1="3" x2="6" y2="3" stroke="#c8c8c8" stroke-width="0.3"/>
    </pattern>
    <pattern id="hatch-bikelane" patternUnits="userSpaceOnUse" width="8" height="8">
      <path d="M 0,8 L 8,0" stroke="#b0b0b0" stroke-width="0.3" fill="none"/>
    </pattern>
    <pattern id="hatch-sidewalk" patternUnits="userSpaceOnUse" width="8" height="8">
      <circle cx="4" cy="4" r="0.6" fill="#b0b0b0"/>
    </pattern>
    <pattern id="hatch-median" patternUnits="userSpaceOnUse" width="8" height="8">
      <path d="M 0,8 L 8,0 M 0,0 L 8,8" stroke="#666666" stroke-width="0.4" fill="none"/>
    </pattern>
    <pattern id="hatch-greenbelt" patternUnits="userSpaceOnUse" width="20" height="20">
      <circle cx="10" cy="10" r="6" fill="none" stroke="#555555" stroke-width="0.4"/>
      <circle cx="10" cy="10" r="1.8" fill="#555555"/>
    </pattern>
  </defs>

  <!-- Background + Drawing frame -->
  <rect width="1400" height="800" fill="#ffffff"/>
  <rect x="8" y="8" width="1384" height="784" fill="none" stroke="#111827" stroke-width="2.0"/>

  <!-- ===== ROAD STRUCTURE ===== -->
  <!-- North sidewalk: y=135.2, h=36 -->
  <rect x="60" y="135.2" width="1080" height="36" fill="#f5f5f5"/>
  <rect x="60" y="135.2" width="1080" height="36" fill="url(#hatch-sidewalk)"/>
  <line x1="60" y1="135.2" x2="1140" y2="135.2" stroke="#111827" stroke-width="1.0"/>
  <line x1="60" y1="171.2" x2="1140" y2="171.2" stroke="#111827" stroke-width="1.0"/>
  <!-- North green belt: y=171.2, h=24 -->
  <rect x="60" y="171.2" width="1080" height="24" fill="#ffffff"/>
  <rect x="60" y="171.2" width="1080" height="24" fill="url(#hatch-greenbelt)"/>
  <line x1="60" y1="195.2" x2="1140" y2="195.2" stroke="#111827" stroke-width="1.5"/>
  <!-- North bike lane: y=195.2, h=42 -->
  <rect x="60" y="195.2" width="1080" height="42" fill="#f0f0f0"/>
  <rect x="60" y="195.2" width="1080" height="42" fill="url(#hatch-bikelane)"/>
  <!-- Edge line -->
  <line x1="60" y1="237.2" x2="1140" y2="237.2" stroke="#111827" stroke-width="1.5"/>
  <!-- North carriageway: y=242, h=126 -->
  <rect x="60" y="242" width="1080" height="126" fill="#e8e8e8"/>
  <rect x="60" y="242" width="1080" height="126" fill="url(#hatch-carriageway)"/>
  <line x1="60" y1="242" x2="1140" y2="242" stroke="#111827" stroke-width="0.8"/>
  <!-- Lane dividers (dashed) -->
  <line x1="60" y1="284" x2="1140" y2="284" stroke="#111827" stroke-width="0.7" stroke-dasharray="10,6"/>
  <line x1="60" y1="326" x2="1140" y2="326" stroke="#111827" stroke-width="0.7" stroke-dasharray="10,6"/>
  <!-- Median: y=368, h=24 -->
  <rect x="60" y="368" width="1080" height="24" fill="#ffffff"/>
  <rect x="60" y="368" width="1080" height="24" fill="url(#hatch-median)"/>
  <line x1="60" y1="368" x2="1140" y2="368" stroke="#111827" stroke-width="1.5"/>
  <line x1="60" y1="392" x2="1140" y2="392" stroke="#111827" stroke-width="1.5"/>
  <!-- South carriageway: y=392, h=126 -->
  <rect x="60" y="392" width="1080" height="126" fill="#e8e8e8"/>
  <rect x="60" y="392" width="1080" height="126" fill="url(#hatch-carriageway)"/>
  <line x1="60" y1="518" x2="1140" y2="518" stroke="#111827" stroke-width="0.8"/>
  <!-- Lane dividers -->
  <line x1="60" y1="434" x2="1140" y2="434" stroke="#111827" stroke-width="0.7" stroke-dasharray="10,6"/>
  <line x1="60" y1="476" x2="1140" y2="476" stroke="#111827" stroke-width="0.7" stroke-dasharray="10,6"/>
  <!-- Edge line -->
  <line x1="60" y1="522.8" x2="1140" y2="522.8" stroke="#111827" stroke-width="1.5"/>
  <!-- South bike lane: y=522.8, h=42 -->
  <rect x="60" y="522.8" width="1080" height="42" fill="#f0f0f0"/>
  <rect x="60" y="522.8" width="1080" height="42" fill="url(#hatch-bikelane)"/>
  <!-- South green belt: y=564.8, h=24 -->
  <line x1="60" y1="564.8" x2="1140" y2="564.8" stroke="#111827" stroke-width="1.5"/>
  <rect x="60" y="564.8" width="1080" height="24" fill="#ffffff"/>
  <rect x="60" y="564.8" width="1080" height="24" fill="url(#hatch-greenbelt)"/>
  <line x1="60" y1="588.8" x2="1140" y2="588.8" stroke="#111827" stroke-width="1.0"/>
  <!-- South sidewalk: y=588.8, h=36 -->
  <rect x="60" y="588.8" width="1080" height="36" fill="#f5f5f5"/>
  <rect x="60" y="588.8" width="1080" height="36" fill="url(#hatch-sidewalk)"/>
  <line x1="60" y1="624.8" x2="1140" y2="624.8" stroke="#111827" stroke-width="1.0"/>

  <!-- ===== CROSSWALK (zebra stripes with black outlines) ===== -->
  <g id="crosswalk">
    <rect x="562" y="195.2" width="76" height="369.6" fill="none" stroke="#111827" stroke-width="1.0"/>
    <rect x="562" y="195.2" width="76" height="4" fill="#ffffff" stroke="#111827" stroke-width="0.4"/>
    <rect x="562" y="206.2" width="76" height="4" fill="#ffffff" stroke="#111827" stroke-width="0.4"/>
    <rect x="562" y="217.2" width="76" height="4" fill="#ffffff" stroke="#111827" stroke-width="0.4"/>
    <rect x="562" y="228.2" width="76" height="4" fill="#ffffff" stroke="#111827" stroke-width="0.4"/>
    <rect x="562" y="239.2" width="76" height="4" fill="#ffffff" stroke="#111827" stroke-width="0.4"/>
    <rect x="562" y="250.2" width="76" height="4" fill="#ffffff" stroke="#111827" stroke-width="0.4"/>
    <rect x="562" y="261.2" width="76" height="4" fill="#ffffff" stroke="#111827" stroke-width="0.4"/>
    <rect x="562" y="272.2" width="76" height="4" fill="#ffffff" stroke="#111827" stroke-width="0.4"/>
    <rect x="562" y="283.2" width="76" height="4" fill="#ffffff" stroke="#111827" stroke-width="0.4"/>
    <rect x="562" y="294.2" width="76" height="4" fill="#ffffff" stroke="#111827" stroke-width="0.4"/>
    <rect x="562" y="305.2" width="76" height="4" fill="#ffffff" stroke="#111827" stroke-width="0.4"/>
    <rect x="562" y="316.2" width="76" height="4" fill="#ffffff" stroke="#111827" stroke-width="0.4"/>
    <rect x="562" y="327.2" width="76" height="4" fill="#ffffff" stroke="#111827" stroke-width="0.4"/>
    <rect x="562" y="338.2" width="76" height="4" fill="#ffffff" stroke="#111827" stroke-width="0.4"/>
    <rect x="562" y="349.2" width="76" height="4" fill="#ffffff" stroke="#111827" stroke-width="0.4"/>
    <rect x="562" y="360.2" width="76" height="4" fill="#ffffff" stroke="#111827" stroke-width="0.4"/>
    <rect x="562" y="371.2" width="76" height="4" fill="#ffffff" stroke="#111827" stroke-width="0.4"/>
    <rect x="562" y="382.2" width="76" height="4" fill="#ffffff" stroke="#111827" stroke-width="0.4"/>
    <rect x="562" y="393.2" width="76" height="4" fill="#ffffff" stroke="#111827" stroke-width="0.4"/>
    <rect x="562" y="404.2" width="76" height="4" fill="#ffffff" stroke="#111827" stroke-width="0.4"/>
    <rect x="562" y="415.2" width="76" height="4" fill="#ffffff" stroke="#111827" stroke-width="0.4"/>
    <rect x="562" y="426.2" width="76" height="4" fill="#ffffff" stroke="#111827" stroke-width="0.4"/>
    <rect x="562" y="437.2" width="76" height="4" fill="#ffffff" stroke="#111827" stroke-width="0.4"/>
    <rect x="562" y="448.2" width="76" height="4" fill="#ffffff" stroke="#111827" stroke-width="0.4"/>
    <rect x="562" y="459.2" width="76" height="4" fill="#ffffff" stroke="#111827" stroke-width="0.4"/>
    <rect x="562" y="470.2" width="76" height="4" fill="#ffffff" stroke="#111827" stroke-width="0.4"/>
    <rect x="562" y="481.2" width="76" height="4" fill="#ffffff" stroke="#111827" stroke-width="0.4"/>
    <rect x="562" y="492.2" width="76" height="4" fill="#ffffff" stroke="#111827" stroke-width="0.4"/>
    <rect x="562" y="503.2" width="76" height="4" fill="#ffffff" stroke="#111827" stroke-width="0.4"/>
    <rect x="562" y="514.2" width="76" height="4" fill="#ffffff" stroke="#111827" stroke-width="0.4"/>
    <rect x="562" y="525.2" width="76" height="4" fill="#ffffff" stroke="#111827" stroke-width="0.4"/>
    <rect x="562" y="536.2" width="76" height="4" fill="#ffffff" stroke="#111827" stroke-width="0.4"/>
    <rect x="562" y="547.2" width="76" height="4" fill="#ffffff" stroke="#111827" stroke-width="0.4"/>
    <rect x="562" y="558.2" width="76" height="4" fill="#ffffff" stroke="#111827" stroke-width="0.4"/>
  </g>

  <!-- Stop lines -->
  <line x1="648" y1="242" x2="648" y2="368" stroke="#111827" stroke-width="2.5"/>
  <line x1="552" y1="392" x2="552" y2="518" stroke="#111827" stroke-width="2.5"/>

  <!-- ===== DIRECTION ARROWS (black on light road) ===== -->
  <g stroke="#111827" stroke-width="1.5" fill="none" stroke-linecap="round">
    <!-- North lanes (westbound) -->
    <g transform="translate(706, 263) rotate(-90)"><path d="M 0,-14 L 0,6 M -4,-9 L 0,-16 L 4,-9"/></g>
    <g transform="translate(706, 305) rotate(-90)"><path d="M 0,-14 L 0,6 M -4,-9 L 0,-16 L 4,-9"/></g>
    <g transform="translate(706, 347) rotate(-90)"><path d="M 0,-14 L 0,6 M -4,-9 L 0,-16 L 4,-9"/></g>
    <g transform="translate(816, 263) rotate(-90)"><path d="M 0,-14 L 0,6 M -4,-9 L 0,-16 L 4,-9" opacity="0.4"/></g>
    <g transform="translate(816, 305) rotate(-90)"><path d="M 0,-14 L 0,6 M -4,-9 L 0,-16 L 4,-9" opacity="0.4"/></g>
    <g transform="translate(816, 347) rotate(-90)"><path d="M 0,-14 L 0,6 M -4,-9 L 0,-16 L 4,-9" opacity="0.4"/></g>
    <!-- South lanes (eastbound) -->
    <g transform="translate(494, 413) rotate(90)"><path d="M 0,-14 L 0,6 M -4,-9 L 0,-16 L 4,-9"/></g>
    <g transform="translate(494, 455) rotate(90)"><path d="M 0,-14 L 0,6 M -4,-9 L 0,-16 L 4,-9"/></g>
    <g transform="translate(494, 497) rotate(90)"><path d="M 0,-14 L 0,6 M -4,-9 L 0,-16 L 4,-9"/></g>
    <g transform="translate(384, 413) rotate(90)"><path d="M 0,-14 L 0,6 M -4,-9 L 0,-16 L 4,-9" opacity="0.4"/></g>
    <g transform="translate(384, 455) rotate(90)"><path d="M 0,-14 L 0,6 M -4,-9 L 0,-16 L 4,-9" opacity="0.4"/></g>
    <g transform="translate(384, 497) rotate(90)"><path d="M 0,-14 L 0,6 M -4,-9 L 0,-16 L 4,-9" opacity="0.4"/></g>
  </g>

  <!-- ===== SENSOR (dark blue block with ID) ===== -->
  <g transform="translate(630, 183.2)">
    <rect x="-5" y="-5" width="10" height="10" fill="#1e3a8a" stroke="#111827" stroke-width="0.6"/>
    <text x="0" y="2.5" text-anchor="middle" font-size="6" fill="#ffffff" font-weight="700">R1</text>
  </g>
  <!-- Detection zone -->
  <path d="M 630,183.2 L 877.5,478.1 A 385,385 0 0,1 382.5,478.1 Z"
    fill="#2563eb" fill-opacity="0.08" stroke="#2563eb" stroke-width="0.7" stroke-dasharray="6,3"/>

  <!-- Sensor callout (straight-corner box) -->
  <rect x="690" y="50" width="190" height="42" rx="0" fill="#ffffff" stroke="#111827" stroke-width="0.6"/>
  <text x="698" y="66" class="callout-title">R1 &#x96f7;&#x89c6;&#x4e00;&#x4f53;&#x673a;</text>
  <text x="698" y="78" class="callout-param">FOV: 80&#xb0;  Range: &#x2264;25m  H: &#x2264;5.5m</text>
  <text x="698" y="88" class="callout-param">Det: pedestrian + vehicle</text>
  <line x1="785" y1="92" x2="630" y2="172" stroke="#374151" stroke-width="0.5"/>
  <circle cx="630" cy="172" r="2" fill="#111827"/>

  <!-- ===== TRAFFIC SIGNS (at carriageway curb) ===== -->
  <!-- North: 注意行人 at curb y=237.2, 5m east -->
  <g transform="translate(698, 237.2)">
    <circle cx="0" cy="0" r="5" fill="none" stroke="#111827" stroke-width="0.6"/>
    <line x1="-3" y1="0" x2="3" y2="0" stroke="#111827" stroke-width="0.4"/>
    <line x1="0" y1="-3" x2="0" y2="3" stroke="#111827" stroke-width="0.4"/>
  </g>
  <text x="698" y="252" text-anchor="middle" class="sub-label">&#x6ce8;&#x610f;&#x884c;&#x4eba;</text>
  <!-- South: 注意行人 at curb y=522.8, 5m west -->
  <g transform="translate(502, 522.8)">
    <circle cx="0" cy="0" r="5" fill="none" stroke="#111827" stroke-width="0.6"/>
    <line x1="-3" y1="0" x2="3" y2="0" stroke="#111827" stroke-width="0.4"/>
    <line x1="0" y1="-3" x2="0" y2="3" stroke="#111827" stroke-width="0.4"/>
  </g>
  <text x="502" y="515" text-anchor="middle" class="sub-label">&#x6ce8;&#x610f;&#x884c;&#x4eba;</text>
  <!-- North: 人行横道 at curb y=237.2, 20m east -->
  <g transform="translate(878, 237.2)">
    <circle cx="0" cy="0" r="5" fill="none" stroke="#111827" stroke-width="0.6"/>
    <line x1="-3" y1="0" x2="3" y2="0" stroke="#111827" stroke-width="0.4"/>
    <line x1="0" y1="-3" x2="0" y2="3" stroke="#111827" stroke-width="0.4"/>
  </g>
  <text x="878" y="252" text-anchor="middle" class="sub-label">&#x4eba;&#x884c;&#x6a2a;&#x9053;</text>
  <!-- South: 人行横道 at curb y=522.8, 20m west -->
  <g transform="translate(322, 522.8)">
    <circle cx="0" cy="0" r="5" fill="none" stroke="#111827" stroke-width="0.6"/>
    <line x1="-3" y1="0" x2="3" y2="0" stroke="#111827" stroke-width="0.4"/>
    <line x1="0" y1="-3" x2="0" y2="3" stroke="#111827" stroke-width="0.4"/>
  </g>
  <text x="322" y="515" text-anchor="middle" class="sub-label">&#x4eba;&#x884c;&#x6a2a;&#x9053;</text>

  <!-- ===== SECTION LABELS ===== -->
  <text x="600" y="156" text-anchor="middle" class="label">&#x5317;&#x4fa7;&#x4eba;&#x884c;&#x9053;</text>
  <text x="600" y="610" text-anchor="middle" class="label">&#x5357;&#x4fa7;&#x4eba;&#x884c;&#x9053;</text>

  <!-- ===== LEGEND (straight corners) ===== -->
  <rect x="30" y="30" width="190" height="195" rx="0" fill="#ffffff" stroke="#111827" stroke-width="0.8"/>
  <text x="40" y="48" class="legend-title">&#x56fe; &#x4f8b;</text>
  <line x1="35" y1="54" x2="215" y2="54" stroke="#111827" stroke-width="0.5"/>
  <!-- Items -->
  <rect x="42" y="62" width="14" height="10" fill="#e8e8e8" stroke="#111827" stroke-width="0.5"/>
  <rect x="42" y="62" width="14" height="10" fill="url(#hatch-carriageway)"/>
  <text x="64" y="71" class="legend-text">&#x673a;&#x52a8;&#x8f66;&#x9053;</text>
  <rect x="42" y="80" width="14" height="10" fill="#f0f0f0" stroke="#111827" stroke-width="0.5"/>
  <rect x="42" y="80" width="14" height="10" fill="url(#hatch-bikelane)"/>
  <text x="64" y="89" class="legend-text">&#x975e;&#x673a;&#x52a8;&#x8f66;&#x9053;</text>
  <rect x="42" y="98" width="14" height="10" fill="#ffffff" stroke="#111827" stroke-width="0.5"/>
  <rect x="42" y="98" width="14" height="10" fill="url(#hatch-greenbelt)"/>
  <text x="64" y="107" class="legend-text">&#x7eff;&#x5316;&#x5e26;</text>
  <rect x="42" y="116" width="14" height="10" fill="#f5f5f5" stroke="#111827" stroke-width="0.5"/>
  <rect x="42" y="116" width="14" height="10" fill="url(#hatch-sidewalk)"/>
  <text x="64" y="125" class="legend-text">&#x4eba;&#x884c;&#x9053;</text>
  <rect x="42" y="134" width="14" height="10" fill="#ffffff" stroke="#111827" stroke-width="0.5"/>
  <rect x="42" y="134" width="14" height="10" fill="url(#hatch-median)"/>
  <text x="64" y="143" class="legend-text">&#x4e2d;&#x592e;&#x5206;&#x9694;&#x5e26;</text>
  <!-- Equipment symbol in legend -->
  <rect x="44" y="155" width="8" height="8" fill="#1e3a8a" stroke="#111827" stroke-width="0.4"/>
  <text x="48" y="161.5" text-anchor="middle" font-size="5" fill="#ffffff" font-weight="700">R</text>
  <text x="64" y="162" class="legend-text">&#x96f7;&#x89c6;&#x4e00;&#x4f53;&#x673a;</text>
  <!-- Detection zone in legend -->
  <path d="M 42,178 L 56,172 A 14,14 0 0,1 56,184 Z" fill="#2563eb" fill-opacity="0.08" stroke="#2563eb" stroke-width="0.5" stroke-dasharray="3,2"/>
  <text x="64" y="181" class="legend-text">&#x68c0;&#x6d4b;&#x8303;&#x56f4;</text>
  <!-- Sign symbol in legend -->
  <circle cx="49" cy="197" r="4" fill="none" stroke="#111827" stroke-width="0.5"/>
  <line x1="47" y1="197" x2="51" y2="197" stroke="#111827" stroke-width="0.3"/>
  <line x1="49" y1="195" x2="49" y2="199" stroke="#111827" stroke-width="0.3"/>
  <text x="64" y="200" class="legend-text">&#x4ea4;&#x901a;&#x6807;&#x5fd7;</text>

  <!-- ===== RIGHT-SIDE DIMENSIONS (tick style) ===== -->
  <g stroke="#111827" stroke-width="0.35" fill="none">
    <line x1="1142" y1="135.2" x2="1205" y2="135.2"/>
    <line x1="1142" y1="171.2" x2="1205" y2="171.2"/>
    <line x1="1142" y1="195.2" x2="1205" y2="195.2"/>
    <line x1="1142" y1="237.2" x2="1205" y2="237.2"/>
    <line x1="1142" y1="368" x2="1205" y2="368"/>
    <line x1="1142" y1="392" x2="1205" y2="392"/>
    <line x1="1142" y1="518" x2="1205" y2="518"/>
    <line x1="1142" y1="564.8" x2="1205" y2="564.8"/>
    <line x1="1142" y1="588.8" x2="1205" y2="588.8"/>
    <line x1="1142" y1="624.8" x2="1205" y2="624.8"/>
  </g>
  <!-- Dim lines with tick ends -->
  <g stroke="#111827" fill="#111827">
    <!-- Sidewalk N -->
    <line x1="1180" y1="135.2" x2="1180" y2="171.2" stroke-width="0.5"/>
    <line x1="1176" y1="135.2" x2="1184" y2="135.2" stroke-width="0.5"/>
    <line x1="1176" y1="171.2" x2="1184" y2="171.2" stroke-width="0.5"/>
    <!-- Green belt N -->
    <line x1="1180" y1="171.2" x2="1180" y2="195.2" stroke-width="0.5"/>
    <line x1="1176" y1="195.2" x2="1184" y2="195.2" stroke-width="0.5"/>
    <!-- Bike lane N -->
    <line x1="1180" y1="195.2" x2="1180" y2="237.2" stroke-width="0.5"/>
    <line x1="1176" y1="237.2" x2="1184" y2="237.2" stroke-width="0.5"/>
    <!-- Carriageway N -->
    <line x1="1180" y1="237.2" x2="1180" y2="368" stroke-width="0.5"/>
    <line x1="1176" y1="368" x2="1184" y2="368" stroke-width="0.5"/>
    <!-- Median -->
    <line x1="1180" y1="368" x2="1180" y2="392" stroke-width="0.5"/>
    <line x1="1176" y1="392" x2="1184" y2="392" stroke-width="0.5"/>
    <!-- Carriageway S -->
    <line x1="1180" y1="392" x2="1180" y2="518" stroke-width="0.5"/>
    <line x1="1176" y1="518" x2="1184" y2="518" stroke-width="0.5"/>
    <!-- Bike lane S -->
    <line x1="1180" y1="518" x2="1180" y2="564.8" stroke-width="0.5"/>
    <line x1="1176" y1="564.8" x2="1184" y2="564.8" stroke-width="0.5"/>
    <!-- Green belt S -->
    <line x1="1180" y1="564.8" x2="1180" y2="588.8" stroke-width="0.5"/>
    <line x1="1176" y1="588.8" x2="1184" y2="588.8" stroke-width="0.5"/>
    <!-- Sidewalk S -->
    <line x1="1180" y1="588.8" x2="1180" y2="624.8" stroke-width="0.5"/>
    <line x1="1176" y1="624.8" x2="1184" y2="624.8" stroke-width="0.5"/>
  </g>
  <!-- Dim text -->
  <text x="1192" y="156" class="dim-text">3.0m</text>
  <text x="1192" y="186" class="dim-text">2.0m</text>
  <text x="1192" y="220" class="dim-text">3.5m</text>
  <text x="1192" y="306" class="dim-text">3&#xd7;3.5m</text>
  <text x="1192" y="383" class="dim-text">2.0m</text>
  <text x="1192" y="458" class="dim-text">3&#xd7;3.5m</text>
  <text x="1192" y="545" class="dim-text">3.5m</text>
  <text x="1192" y="580" class="dim-text">2.0m</text>
  <text x="1192" y="610" class="dim-text">3.0m</text>
  <!-- Dim labels -->
  <text x="1225" y="156" class="dim-label">&#x4eba;&#x884c;&#x9053;</text>
  <text x="1219" y="186" class="dim-label">&#x7eff;&#x5316;&#x5e26;</text>
  <text x="1222" y="220" class="dim-label">&#x975e;&#x673a;&#x52a8;&#x8f66;&#x9053;</text>
  <text x="1225" y="306" class="dim-label">&#x673a;&#x52a8;&#x8f66;&#x9053;</text>
  <text x="1219" y="383" class="dim-label">&#x4e2d;&#x592e;&#x5206;&#x9694;&#x5e26;</text>
  <text x="1225" y="458" class="dim-label">&#x673a;&#x52a8;&#x8f66;&#x9053;</text>
  <text x="1222" y="545" class="dim-label">&#x975e;&#x673a;&#x52a8;&#x8f66;&#x9053;</text>
  <text x="1219" y="580" class="dim-label">&#x7eff;&#x5316;&#x5e26;</text>
  <text x="1225" y="610" class="dim-label">&#x4eba;&#x884c;&#x9053;</text>

  <!-- Sub-dims: individual lanes -->
  <g stroke="#111827" stroke-width="0.3" fill="none">
    <line x1="1158" y1="284" x2="1168" y2="284"/>
    <line x1="1158" y1="326" x2="1168" y2="326"/>
    <line x1="1163" y1="242" x2="1163" y2="368"/>
    <line x1="1158" y1="434" x2="1168" y2="434"/>
    <line x1="1158" y1="476" x2="1168" y2="476"/>
    <line x1="1163" y1="392" x2="1163" y2="518"/>
  </g>
  <text x="1150" y="266" class="dim-label" text-anchor="middle">3.5</text>
  <text x="1150" y="308" class="dim-label" text-anchor="middle">3.5</text>
  <text x="1150" y="350" class="dim-label" text-anchor="middle">3.5</text>
  <text x="1150" y="416" class="dim-label" text-anchor="middle">3.5</text>
  <text x="1150" y="458" class="dim-label" text-anchor="middle">3.5</text>
  <text x="1150" y="500" class="dim-label" text-anchor="middle">3.5</text>

  <!-- Overall width at x=1305 -->
  <g stroke="#111827" stroke-width="0.3" fill="none">
    <line x1="1205" y1="135.2" x2="1320" y2="135.2"/>
    <line x1="1205" y1="624.8" x2="1320" y2="624.8"/>
  </g>
  <line x1="1305" y1="135.2" x2="1305" y2="624.8" stroke="#111827" stroke-width="0.5"/>
  <line x1="1301" y1="135.2" x2="1309" y2="135.2" stroke="#111827" stroke-width="0.5"/>
  <line x1="1301" y1="624.8" x2="1309" y2="624.8" stroke="#111827" stroke-width="0.5"/>
  <text x="1318" y="376" class="dim-text" font-weight="600">40m</text>
  <text x="1318" y="388" class="dim-label">&#x603b;&#x5bbd;</text>

  <!-- ===== BOTTOM DIMENSIONS (sign distances + crosswalk width) ===== -->
  <g stroke="#111827" stroke-width="0.3" fill="none">
    <line x1="322" y1="624.8" x2="322" y2="654"/>
    <line x1="502" y1="624.8" x2="502" y2="640"/>
    <line x1="562" y1="624.8" x2="562" y2="654"/>
    <line x1="638" y1="624.8" x2="638" y2="654"/>
    <line x1="698" y1="624.8" x2="698" y2="640"/>
    <line x1="878" y1="624.8" x2="878" y2="654"/>
  </g>
  <!-- Level 1: 5m + 6m crosswalk + 5m -->
  <line x1="502" y1="635" x2="562" y2="635" stroke="#111827" stroke-width="0.5"/>
  <line x1="502" y1="632" x2="502" y2="638" stroke="#111827" stroke-width="0.5"/>
  <line x1="562" y1="632" x2="562" y2="638" stroke="#111827" stroke-width="0.5"/>
  <text x="532" y="632" text-anchor="middle" class="dim-text">5m</text>
  <line x1="562" y1="635" x2="638" y2="635" stroke="#111827" stroke-width="0.5"/>
  <line x1="638" y1="632" x2="638" y2="638" stroke="#111827" stroke-width="0.5"/>
  <text x="600" y="632" text-anchor="middle" class="dim-text">6.0m</text>
  <line x1="638" y1="635" x2="698" y2="635" stroke="#111827" stroke-width="0.5"/>
  <line x1="698" y1="632" x2="698" y2="638" stroke="#111827" stroke-width="0.5"/>
  <text x="668" y="632" text-anchor="middle" class="dim-text">5m</text>
  <!-- Level 2: 20m -->
  <line x1="322" y1="650" x2="562" y2="650" stroke="#111827" stroke-width="0.5"/>
  <line x1="322" y1="647" x2="322" y2="653" stroke="#111827" stroke-width="0.5"/>
  <line x1="562" y1="647" x2="562" y2="653" stroke="#111827" stroke-width="0.5"/>
  <text x="442" y="647" text-anchor="middle" class="dim-text">20m</text>
  <line x1="638" y1="650" x2="878" y2="650" stroke="#111827" stroke-width="0.5"/>
  <line x1="638" y1="647" x2="638" y2="653" stroke="#111827" stroke-width="0.5"/>
  <line x1="878" y1="647" x2="878" y2="653" stroke="#111827" stroke-width="0.5"/>
  <text x="758" y="647" text-anchor="middle" class="dim-text">20m</text>
  <!-- Dim labels -->
  <text x="532" y="644" text-anchor="middle" class="dim-label">&#x6ce8;&#x610f;&#x884c;&#x4eba;&#x2192;&#x6591;&#x9a6c;&#x7ebf;</text>
  <text x="600" y="644" text-anchor="middle" class="dim-label">&#x4eba;&#x884c;&#x6a2a;&#x9053;</text>
  <text x="668" y="644" text-anchor="middle" class="dim-label">&#x6ce8;&#x610f;&#x884c;&#x4eba;&#x2192;&#x6591;&#x9a6c;&#x7ebf;</text>
  <text x="442" y="659" text-anchor="middle" class="dim-label">&#x4eba;&#x884c;&#x6a2a;&#x9053;&#x6807;&#x5fd7;&#x2192;&#x6591;&#x9a6c;&#x7ebf;</text>
  <text x="758" y="659" text-anchor="middle" class="dim-label">&#x4eba;&#x884c;&#x6a2a;&#x9053;&#x6807;&#x5fd7;&#x2192;&#x6591;&#x9a6c;&#x7ebf;</text>

  <!-- ===== TITLE BLOCK ===== -->
  <rect x="8" y="740" width="1384" height="52" fill="#fafafa" stroke="#111827" stroke-width="0.8"/>
  <line x1="700" y1="740" x2="700" y2="792" stroke="#111827" stroke-width="0.5"/>
  <text x="354" y="764" text-anchor="middle" class="title">&#x8def;&#x6bb5;&#x4e2d;&#x95f4;&#x975e;&#x706f;&#x63a7;&#x884c;&#x4eba;&#x8fc7;&#x8857;&#x70b9;&#x4f4d;&#x603b;&#x5e73;&#x9762;&#x56fe;</text>
  <text x="354" y="782" text-anchor="middle" class="subtitle">Overall Layout Plan of Non-signalized Pedestrian Crossing Point</text>
  <text x="820" y="756" font-size="9" fill="#374151">&#x6bd4;&#x4f8b;: 1:500</text>
  <text x="820" y="770" font-size="9" fill="#374151">&#x65e5;&#x671f;: 2026-04</text>
  <text x="820" y="784" font-size="9" fill="#374151">&#x56fe;&#x53f7;: TD-PED-001</text>
  <text x="1020" y="756" font-size="9" fill="#374151">&#x8bbe;&#x8ba1;: &#x5929;&#x5b89;&#x667a;&#x8054;</text>
  <text x="1020" y="770" font-size="9" fill="#374151">&#x5ba1;&#x6838;:</text>
  <text x="1020" y="784" font-size="9" fill="#374151">&#x6279;&#x51c6;:</text>

  <!-- ===== NORTH ARROW ===== -->
  <circle cx="1120" cy="65" r="16" fill="none" stroke="#111827" stroke-width="1.0"/>
  <path d="M 1120,77 L 1120,53 M 1116,59 L 1120,51 L 1124,59" stroke="#111827" stroke-width="1.5" fill="none" stroke-linecap="round" stroke-linejoin="round"/>
  <text x="1120" y="92" text-anchor="middle" font-size="11" fill="#111827" font-weight="700">N</text>

  <!-- ===== SCALE BAR ===== -->
  <line x1="1000" y1="720" x2="1120" y2="720" stroke="#111827" stroke-width="1.2"/>
  <line x1="1000" y1="716" x2="1000" y2="724" stroke="#111827" stroke-width="0.8"/>
  <line x1="1060" y1="717" x2="1060" y2="723" stroke="#111827" stroke-width="0.5"/>
  <line x1="1120" y1="716" x2="1120" y2="724" stroke="#111827" stroke-width="0.8"/>
  <text x="1000" y="713" text-anchor="middle" font-size="8" fill="#111827">0</text>
  <text x="1060" y="713" text-anchor="middle" font-size="8" fill="#111827">5m</text>
  <text x="1120" y="713" text-anchor="middle" font-size="8" fill="#111827">10m</text>
</svg>
